# xmcd
#
# Track frame offsets:
#	150
#	22683
#	37109
#	56615
#	72420
#	86431
#	108843
#	124192
#	140487
#	165108
#	178042
#	197633
#	211587
#	225868
#	246312
#	271415
#
# Disc length: 3632 seconds
#
# Revision: 1
# Processed by: cddbd v1.5.1PL0 Copyright (c) Steve Scherf et al.
# Submitted via: audiograbber 1.83.01
#
DISCID=cd0e2e10
DTITLE=Sound Choice - SC8893
DYEAR=2005
DGENRE=KARAOKE
TTITLE0=Robert Cray and Shemekia Copeland - I Pitty The Fool (Live Version)
TTITLE1=Tina Turner - A Fool In Love
TTITLE2=Albert Collins - I Ain't Drunk
TTITLE3=Sonny Boy Williamson - Help Me
TTITLE4="Big Mama" Thornton - Hound Dog
TTITLE5=Susan Tedeschi - Just Won't Burn
TTITLE6=Ray Charles - Let's Go Get Stoned
TTITLE7=Aerosmith - Baby, Please Don't Go
TTITLE8=Albert Collins - Master Charge
TTITLE9=The Paul Butterfield Blues Band - Mystery Train
TTITLE10=Robert Cray - Smoking Gun
TTITLE11=Howlin' Wolf - Spoonful
TTITLE12=Jimmy Reed - Big Boss Man
TTITLE13=Janis Joplin - One Good Man
TTITLE14=B.B. King - Every Day I Have The Blues
TTITLE15=Data Track - Data Track
EXTD=
EXTT0=
EXTT1=
EXTT2=
EXTT3=
EXTT4=
EXTT5=
EXTT6=
EXTT7=
EXTT8=
EXTT9=
EXTT10=
EXTT11=
EXTT12=
EXTT13=
EXTT14=
EXTT15=
PLAYORDER=
